<svg width="900" height="1200" viewBox="0 0 900 1200" fill="none" xmlns="http://www.w3.org/2000/svg" role="img" aria-labelledby="title desc">
  <title id="title">Cauã Petry placeholder</title>
  <desc id="desc">Placeholder visual para a foto de Cauã Petry</desc>
  <rect width="900" height="1200" fill="transparent"/>
  <g opacity="0.9">
    <ellipse cx="450" cy="1110" rx="190" ry="28" fill="url(#shadow)"/>
    <circle cx="450" cy="310" r="94" fill="url(#skin)"/>
    <path d="M351 240C382 168 488 151 541 214C572 251 576 303 552 344C532 292 497 262 442 259C403 257 373 264 351 240Z" fill="#07070D"/>
    <path d="M377 409C414 382 494 382 529 410L576 668C585 716 548 759 499 759H405C357 759 321 715 329 668L377 409Z" fill="#08090F"/>
    <path d="M376 438C314 472 269 543 243 651" stroke="url(#cyan)" stroke-width="56" stroke-linecap="round"/>
    <path d="M525 437C590 478 638 553 666 661" stroke="url(#violet)" stroke-width="56" stroke-linecap="round"/>
    <path d="M405 740L342 1004" stroke="#090A10" stroke-width="72" stroke-linecap="round"/>
    <path d="M507 741L590 997" stroke="#090A10" stroke-width="72" stroke-linecap="round"/>
    <path d="M321 1054H468" stroke="url(#cyan)" stroke-width="58" stroke-linecap="round"/>
    <path d="M551 1050H700" stroke="url(#lime)" stroke-width="58" stroke-linecap="round"/>
    <rect x="366" y="506" width="170" height="106" rx="14" fill="#DDEBFF"/>
    <path d="M400 562H503" stroke="#0F172A" stroke-width="18" stroke-linecap="round"/>
    <path d="M407 592H490" stroke="#0F172A" stroke-width="14" stroke-linecap="round"/>
  </g>
  <defs>
    <linearGradient id="skin" x1="367" x2="540" y1="228" y2="384" gradientUnits="userSpaceOnUse">
      <stop stop-color="#F9C7A9"/>
      <stop offset="1" stop-color="#D98767"/>
    </linearGradient>
    <linearGradient id="cyan" x1="232" x2="385" y1="443" y2="672" gradientUnits="userSpaceOnUse">
      <stop stop-color="#67E8F9"/>
      <stop offset="1" stop-color="#2563EB"/>
    </linearGradient>
    <linearGradient id="violet" x1="521" x2="674" y1="438" y2="671" gradientUnits="userSpaceOnUse">
      <stop stop-color="#C4B5FD"/>
      <stop offset="1" stop-color="#7C3AED"/>
    </linearGradient>
    <linearGradient id="lime" x1="550" x2="702" y1="1030" y2="1064" gradientUnits="userSpaceOnUse">
      <stop stop-color="#22D3EE"/>
      <stop offset="1" stop-color="#BEF264"/>
    </linearGradient>
    <radialGradient id="shadow" cx="0" cy="0" r="1" gradientUnits="userSpaceOnUse" gradientTransform="translate(450 1110) rotate(90) scale(28 190)">
      <stop stop-color="#000000" stop-opacity="0.5"/>
      <stop offset="1" stop-color="#000000" stop-opacity="0"/>
    </radialGradient>
  </defs>
</svg>
